<svg width="26" height="32" viewBox="0 0 26 32" fill="none" xmlns="http://www.w3.org/2000/svg">
<g clip-path="url(#clip0_150_1555)">
<path d="M12.6182 22.0292C11.8113 22.0292 11.0043 21.7042 10.316 21.0455L0.12085 11.3111V24.9065C0.12085 26.4951 1.16995 27.7839 2.46411 27.7839H22.7724C24.0665 27.7839 25.1156 26.4957 25.1156 24.9065V11.3111L14.9225 21.0521C14.2341 21.7055 13.4237 22.0292 12.6182 22.0292ZM0.916094 9.63863L11.2753 19.5355C12.0656 20.2908 13.1728 20.2908 13.9632 19.5355L24.3224 9.63863C24.7788 9.15908 25.1156 8.42176 25.1156 7.64248C25.1156 6.05335 24.0661 4.76514 22.7724 4.76514H2.46411C1.16995 4.76514 0.12085 6.05335 0.12085 7.64248C0.12085 8.42176 0.414246 9.15908 0.916094 9.63863Z" fill="white"/>
</g>
<defs>
<clipPath id="clip0_150_1555">
<rect width="24.9948" height="30.6916" fill="white" transform="translate(0.12085 0.928955)"/>
</clipPath>
</defs>
</svg>
