<svg width="20" height="32" viewBox="0 0 20 32" fill="none" xmlns="http://www.w3.org/2000/svg">
<g clip-path="url(#clip0_150_1561)">
<path d="M8.90771 30.7637C6.35942 26.9153 0.69165 17.5879 0.69165 12.3487C0.69165 5.99219 4.88804 0.839355 10.0647 0.839355C15.2394 0.839355 19.4377 5.99219 19.4377 12.3487C19.4377 17.5879 13.726 26.9153 11.2217 30.7637C10.6212 31.6809 9.50817 31.6809 8.90771 30.7637ZM10.0647 16.1852C11.788 16.1852 13.189 14.4648 13.189 12.3487C13.189 10.2327 11.788 8.51227 10.0647 8.51227C8.34143 8.51227 6.94035 10.2327 6.94035 12.3487C6.94035 14.4648 8.34143 16.1852 10.0647 16.1852Z" fill="white"/>
</g>
<defs>
<clipPath id="clip0_150_1561">
<rect width="18.7461" height="30.6916" fill="white" transform="translate(0.69165 0.839355)"/>
</clipPath>
</defs>
</svg>
