<svg width="26" height="31" viewBox="0 0 26 31" fill="none" xmlns="http://www.w3.org/2000/svg">
<g clip-path="url(#clip0_150_1550)">
<path d="M25.0766 23.5043L23.9416 29.5468C23.7821 30.401 23.1707 30.9986 22.4546 30.9986C10.1383 30.9974 0.12085 18.6968 0.12085 3.57275C0.12085 2.69397 0.607516 1.94226 1.30322 1.74744L6.22407 0.353728C6.94072 0.149797 7.67299 0.606575 7.97078 1.43993L10.2418 7.94392C10.5073 8.71001 10.3282 9.60258 9.8034 10.1289L7.17504 12.7203C8.83388 16.8697 11.5814 20.2434 14.9615 22.2815L17.1134 19.0565C17.5375 18.4102 18.2699 18.1867 18.8938 18.5184L24.1905 21.3065C24.8276 21.718 25.2426 22.6292 25.0766 23.5043Z" fill="white"/>
</g>
<defs>
<clipPath id="clip0_150_1550">
<rect width="24.9948" height="30.6916" fill="white" transform="translate(0.12085 0.305664)"/>
</clipPath>
</defs>
</svg>
