<svg width="241" height="27" viewBox="0 0 241 27" fill="none" xmlns="http://www.w3.org/2000/svg">
<path d="M29.1951 6.8219C29.2153 7.11154 29.2153 7.40124 29.2153 7.69089C29.2153 16.5253 22.6618 26.7047 10.684 26.7047C6.99388 26.7047 3.56592 25.6081 0.682373 23.7047C1.20667 23.7667 1.71074 23.7874 2.25521 23.7874C5.30001 23.7874 8.10293 22.7323 10.3412 20.9323C7.47783 20.8702 5.07824 18.9461 4.25148 16.2978C4.6548 16.3598 5.05807 16.4012 5.48156 16.4012C6.06632 16.4012 6.65113 16.3184 7.19554 16.1737C4.21119 15.5529 1.97285 12.8633 1.97285 9.61501V9.53229C2.8399 10.0288 3.84821 10.3392 4.91686 10.3805C3.16253 9.18049 2.0132 7.13224 2.0132 4.81498C2.0132 3.57362 2.33577 2.43569 2.90042 1.44258C6.1066 5.49775 10.926 8.14598 16.33 8.43569C16.2292 7.93913 16.1687 7.42194 16.1687 6.90469C16.1687 3.22189 19.0724 0.221924 22.6819 0.221924C24.5572 0.221924 26.251 1.02882 27.4407 2.33227C28.9127 2.04263 30.3242 1.48398 31.5745 0.718479C31.0905 2.27024 30.0621 3.57369 28.7111 4.40122C30.0218 4.25646 31.2922 3.88396 32.4617 3.36677C31.5746 4.69086 30.4655 5.87012 29.1951 6.8219Z" fill="#15742A" fill-opacity="0.93"/>
<g clip-path="url(#clip0_150_1523)">
<path d="M72.1887 6.6737C68.4312 6.6737 65.4003 9.7052 65.4003 13.4635C65.4003 17.2219 68.4312 20.2534 72.1887 20.2534C75.9462 20.2534 78.977 17.2219 78.977 13.4635C78.977 9.7052 75.9462 6.6737 72.1887 6.6737ZM72.1887 17.8778C69.7605 17.8778 67.7754 15.8982 67.7754 13.4635C67.7754 11.0289 69.7546 9.04926 72.1887 9.04926C74.6228 9.04926 76.602 11.0289 76.602 13.4635C76.602 15.8982 74.6169 17.8778 72.1887 17.8778ZM80.838 6.39596C80.838 7.27646 80.1291 7.97967 79.2547 7.97967C78.3744 7.97967 77.6713 7.27055 77.6713 6.39596C77.6713 5.52138 78.3803 4.81226 79.2547 4.81226C80.1291 4.81226 80.838 5.52138 80.838 6.39596ZM85.334 8.00331C85.2336 5.88185 84.7491 4.00268 83.1953 2.45443C81.6474 0.906175 79.7687 0.421609 77.6477 0.31524C75.4617 0.191144 68.9097 0.191144 66.7237 0.31524C64.6087 0.415699 62.7299 0.900266 61.1761 2.44852C59.6223 3.99677 59.1437 5.87594 59.0374 7.9974C58.9133 10.1839 58.9133 16.7373 59.0374 18.9238C59.1378 21.0452 59.6223 22.9244 61.1761 24.4727C62.7299 26.0209 64.6028 26.5055 66.7237 26.6119C68.9097 26.7359 75.4617 26.7359 77.6477 26.6119C79.7687 26.5114 81.6474 26.0268 83.1953 24.4727C84.7432 22.9244 85.2277 21.0452 85.334 18.9238C85.4581 16.7373 85.4581 10.1898 85.334 8.00331ZM82.51 21.2698C82.0492 22.428 81.1571 23.3203 79.9932 23.7872C78.2503 24.4786 74.1147 24.319 72.1887 24.319C70.2626 24.319 66.1211 24.4727 64.3842 23.7872C63.2262 23.3263 62.3341 22.4339 61.8673 21.2698C61.1761 19.5265 61.3356 15.39 61.3356 13.4635C61.3356 11.5371 61.182 7.39464 61.8673 5.65729C62.3282 4.49906 63.2203 3.60675 64.3842 3.13991C66.127 2.44852 70.2626 2.60807 72.1887 2.60807C74.1147 2.60807 78.2562 2.45443 79.9932 3.13991C81.1512 3.60084 82.0433 4.49315 82.51 5.65729C83.2012 7.40055 83.0417 11.5371 83.0417 13.4635C83.0417 15.39 83.2012 19.5324 82.51 21.2698Z" fill="#15742A" fill-opacity="0.93"/>
</g>
<g clip-path="url(#clip1_150_1523)">
<path d="M131.349 15.1187L132.134 10.326H127.227V7.21579C127.227 5.90458 127.913 4.62648 130.11 4.62648H132.341V0.545961C132.341 0.545961 130.317 0.222168 128.381 0.222168C124.34 0.222168 121.698 2.51769 121.698 6.6732V10.326H117.206V15.1187H121.698V26.7049H127.227V15.1187H131.349Z" fill="#15742A" fill-opacity="0.93"/>
</g>
<g clip-path="url(#clip2_150_1523)">
<path d="M194.262 6.18553C193.917 4.8807 192.9 3.85306 191.609 3.50432C189.268 2.87061 179.882 2.87061 179.882 2.87061C179.882 2.87061 170.497 2.87061 168.156 3.50432C166.865 3.85312 165.848 4.8807 165.503 6.18553C164.875 8.55061 164.875 13.4851 164.875 13.4851C164.875 13.4851 164.875 18.4196 165.503 20.7847C165.848 22.0895 166.865 23.0744 168.156 23.4231C170.497 24.0568 179.882 24.0568 179.882 24.0568C179.882 24.0568 189.268 24.0568 191.609 23.4231C192.9 23.0744 193.917 22.0895 194.262 20.7847C194.889 18.4196 194.889 13.4851 194.889 13.4851C194.889 13.4851 194.889 8.55061 194.262 6.18553ZM176.813 17.9653V9.00495L184.657 13.4852L176.813 17.9653Z" fill="#15742A" fill-opacity="0.93"/>
</g>
<defs>
<clipPath id="clip0_150_1523">
<rect width="26.4828" height="26.4828" fill="white" transform="translate(58.9443 0.221924)"/>
</clipPath>
<clipPath id="clip1_150_1523">
<rect width="26.4828" height="26.4828" fill="white" transform="translate(111.91 0.221924)"/>
</clipPath>
<clipPath id="clip2_150_1523">
<rect width="30.0138" height="26.4828" fill="white" transform="translate(164.875 0.221924)"/>
</clipPath>
</defs>
</svg>
