<svg width="752" height="648" viewBox="0 0 752 648" fill="none" xmlns="http://www.w3.org/2000/svg">
<path d="M2.26986 1C-6.29403 26.5693 24.536 90.6428 216.367 142.383C399.322 191.729 286.174 246.821 196.516 271.386C188.187 273.668 180.353 278.202 176.725 286.039C168.42 303.979 165.554 333.134 195.347 360.474C222.739 385.611 242.045 376.186 252.956 361.759C260.232 352.138 260.707 338.521 253.47 328.87C245.876 318.744 233.568 312.173 216.367 324.376C190.208 342.934 213.253 378.234 228.045 393.563C252.958 420.637 335.172 477.34 464.72 487.568C626.656 500.353 675.703 488.32 689.717 416.877C703.731 345.433 607.971 286.774 546.467 305.575C484.962 324.376 420.344 473.279 516.882 546.979C594.113 605.939 705.807 638.226 752 647" stroke="#CFA284" stroke-width="1.5"/>
</svg>
